<svg width="245" height="66" viewBox="0 0 245 66" fill="none" xmlns="http://www.w3.org/2000/svg">
<g clip-path="url(#clip0_3717_11401)">
<path d="M221 27.2V41.3H225V35.6H228V41.3H232V27.2H228V32.7H225V27.2H221Z" fill="white"/>
<path d="M217.2 32.7H213.3V30H217.3V27.2H209.2V41.3H217.6V38.5H213.2V35.3H216.5L217.2 32.7Z" fill="white"/>
<path d="M202.4 41.4H206L204.9 27.3H200.7L199.6 31.8C199.2 33.5 198.8 35.2 198.5 36.8H198.4C198.1 35.2 197.7 33.6 197.2 31.8L196.1 27.3H191.8L190.4 41.4H193.9L194.2 37C194.3 35.9 194.4 34.2 194.5 32.7H194.6C194.8 34.2 195.2 35.9 195.5 36.8L196.7 41.1H199.6L200.9 36.8C201.1 36 201.6 34.2 201.9 32.7H202C202 34.2 202.1 35.9 202.2 37L202.4 41.4Z" fill="white"/>
<path d="M187.5 32.7H183.6V30H187.6V27.2H179.5V41.3H187.9V38.5H183.5V35.3H186.8L187.5 32.7Z" fill="white"/>
<path d="M164.5 27.2V41.3H172.4L172.1 42.9H176.2L177.1 38.3H175.6V27.2H171.5V38.3H168.5V27.2H164.5Z" fill="white"/>
<path d="M151 41.4H155V37L155.7 35.9L157.8 41.3H162.2L158.4 33.4L162.2 27.2H157.8L155.9 31.5C155.5 32.1 155.3 32.7 155 33.3V27.1H151V41.4Z" fill="white"/>
<path d="M142.1 38.7C140.9 38.7 140.3 37.1 140.3 34.2C140.3 31.7 140.9 29.9 142.1 29.9C143.3 29.9 143.7 31.7 143.7 34.2C143.7 37 143.3 38.7 142.1 38.7ZM142.1 41.5C145.7 41.5 148.1 39.3 148.1 33.9C148.1 31.2 147.1 27 142.4 27C138.1 27 136.3 30.7 136.3 34.1C136.2 37.7 137.6 41.5 142.1 41.5Z" fill="white"/>
<path d="M127.3 41.4H131.4V30.3H133.8L134.4 27.3H124.1V30.3H127.2V41.4H127.3Z" fill="white"/>
<path d="M121.7 38.4C121.3 38.5 120.6 38.6 120.2 38.6C118.2 38.6 116.7 37.3 116.7 34.4C116.7 31.3 118.2 30 120.3 30C120.9 30 121.4 30.2 121.8 30.2L122.4 27.5C122.1 27.3 121.2 27.1 119.9 27.1C116.2 27.1 112.4 29.3 112.4 34.5C112.4 38.2 114.4 41.5 119.4 41.5C120.6 41.5 121.7 41.3 122.1 41.2L121.7 38.4Z" fill="white"/>
<path d="M104.4 38.7C103.2 38.7 102.6 37.1 102.6 34.2C102.6 31.7 103.2 29.9 104.4 29.9C105.6 29.9 106 31.7 106 34.2C106 37 105.5 38.7 104.4 38.7ZM104.3 41.5C107.9 41.5 110.3 39.3 110.3 33.9C110.3 31.2 109.3 27 104.6 27C100.3 27 98.5 30.7 98.5 34.1C98.4 37.7 99.9 41.5 104.3 41.5Z" fill="white"/>
<path d="M89 35.4H89.6C90.7 35.4 91.7 36.1 91.7 37.2C91.7 38.4 90.6 39 89.5 39C89.3 39 89.1 39 88.9 38.9L89 35.4ZM89 29.6C89.2 29.6 89.5 29.5 89.8 29.5C90.9 29.5 91.4 30.2 91.4 31.1C91.4 32.1 90.7 32.8 89.6 32.8H89V29.6ZM85 41.3C85.9 41.4 87.1 41.5 88.4 41.5C91.7 41.5 93.6 40.9 94.7 40C95.5 39.3 96 38.4 96 37.2C96 35.8 94.9 34.4 92.9 33.9C94.7 33.2 95.4 32 95.4 30.9C95.4 29.9 95 28.9 93.9 28.3C92.6 27.4 90.9 27.2 89.2 27.2C87.6 27.2 86 27.3 84.9 27.4V41.3H85Z" fill="white"/>
<path d="M237.9 41.4H241.9V30.3H244.4L245 27.3H234.8V30.3H237.9V41.4Z" fill="white"/>
<path d="M36.2 57.7L33.5 54C33.5 54 33.7 53.8 30.3 57.6C28.5 57.4 26.4 56.6 25.3 54.3C22.4 63.2 46.6 60.4 41.3 54.3C39.9 56.4 38 57.3 36.2 57.7Z" fill="#231F20"/>
<path d="M67 66.631H33.5H0V0H33.5H67V66.631Z" fill="#1D1D1B"/>
<path d="M33.5024 30.0236C33.838 30.1773 34.1902 30.3311 34.462 30.4423C34.3722 29.6285 33.9514 28.7437 33.5024 28.0009C33.0509 28.7437 32.6325 29.6285 32.5403 30.4423C32.8122 30.3287 33.1643 30.1773 33.5024 30.0212V30.0236Z" fill="#EB6209"/>
<path d="M33.5024 27.0853C34.1027 27.5135 34.8449 28.1002 35.5493 28.8289C35.5493 26.7399 34.4313 25.2826 33.5024 24.4286C32.5735 25.2826 31.4554 26.7399 31.4554 28.8289C32.1574 28.1002 32.902 27.5135 33.5024 27.0853Z" fill="#EB6209"/>
<path d="M33.5024 21.7388C34.6582 21.8571 36.5066 22.1741 38.1706 23.0612C38.2368 21.9801 36.0315 20.0851 38.388 19.8296H40.3522C40.5295 19.0939 39.5462 18.8597 39.4777 18.2138C40.3948 17.549 41.6168 17.6106 42.7561 17.523C40.9999 15.5074 35.6793 14.9491 33.5 14.8119C31.3207 14.9491 26.0001 15.5074 24.244 17.523C24.9696 17.5774 25.7283 17.5727 26.4209 17.7336L26.5391 17.6248C26.5391 17.6248 28.2362 17.3811 28.3378 17.3811C28.4394 17.3811 29.8813 17.0948 29.9687 17.0948C30.0562 17.0948 31.368 16.7755 31.5264 16.8086C31.6847 16.8417 32.8689 16.9931 32.8689 16.9931C32.8689 16.9931 32.6964 17.3456 32.3205 17.5301C31.9447 17.7146 30.9213 17.8164 30.6187 17.8495C30.3162 17.8826 29.7962 17.9512 29.4794 18.034C29.1627 18.1168 28.4985 18.3061 28.3402 18.3368C28.2125 18.3629 27.7043 18.474 27.4112 18.519C27.1442 18.9543 26.5036 19.2193 26.6478 19.8249H28.612C30.9685 20.078 28.7633 21.9753 28.8294 23.0565C30.4958 22.167 32.3418 21.8523 33.5 21.734L33.5024 21.7388Z" fill="#EB6209"/>
<path d="M33.5023 13.2434C35.9747 12.9974 43.0018 13.0257 50.3977 19.6025C47.2115 12.4627 36.7949 10.0023 33.5023 9.39197C30.2074 10.0023 19.7932 12.4627 16.6046 19.6025C23.9981 13.0257 31.0276 12.9974 33.5023 13.2434Z" fill="#EB6209"/>
<path d="M33.5023 7.75725C35.3082 7.66736 39.5013 7.71467 45.661 9.32101C44.9164 7.25808 36.7902 5.45776 33.5023 4.78589C30.2121 5.46012 24.303 6.72816 23.5585 8.78872C29.7158 7.18238 31.6918 7.66736 33.5023 7.75725Z" fill="#EB6209"/>
<path d="M33.5024 4.44285C36.8517 4.04777 44.9377 4.15423 44.9377 4.15423C42.8222 3.0447 35.4642 2.1126 33.5024 1.85947C31.5405 2.11023 26.2838 3.03051 24.166 4.14004C24.166 4.14004 30.1507 4.04541 33.5024 4.44049V4.44285Z" fill="#EB6209"/>
<path d="M52.7543 6.59566C52.7543 6.59566 57.6825 1.17576 61.0365 3.8869C60.0485 4.76932 53.5603 7.20366 52.7543 6.59566Z" fill="#EB6209"/>
<path d="M50.3387 30.7333C50.9272 28.5899 50.185 26.4229 50.1236 24.2772C46.3252 25.5452 49.5988 30.6055 42.6993 32.8104C42.6993 32.8104 48.2634 36.4844 47.9916 39.8319C47.9916 39.8319 48.001 41.9634 49.0245 41.8049C49.1616 39.8177 50.8374 38.2066 49.9014 36.0373C48.4005 35.0247 46.363 35.3678 45.0984 33.733C47.0863 33.3403 49.197 32.808 50.3363 30.7333H50.3387Z" fill="#EB6209"/>
<path d="M47.4314 40.5511C47.0579 37.0687 43.4959 36.2549 41.449 34.1305C39.8346 32.0202 44.3964 31.6867 44.9377 28.8289C44.9164 28.0434 45.8335 27.6531 45.5972 26.7541C44.439 27.1681 44.3492 29.8414 42.4039 29.2192C41.4726 28.9259 41.3119 28.2777 41.6641 27.4449L41.8815 27.2107C42.2313 27.6957 42.801 28.1949 43.6283 27.9039C44.0513 27.6886 44.1932 27.4213 44.0632 26.9836L43.6283 26.5223C43.3895 26.7754 43.0988 27.1799 42.7561 26.9836C42.593 26.8937 42.4701 26.7541 42.5362 26.5223C44.0632 25.4388 45.921 26.8014 47.1241 25.3702L46.9043 24.218C44.8574 24.431 43.4084 25.3016 41.6641 25.8338C40.7257 28.3013 39.109 30.4683 38.8253 33.2126C41.6002 36.2596 44.8526 39.1175 46.4646 42.6708C47.2659 42.491 47.4621 41.2419 47.4314 40.5558V40.5511Z" fill="#EB6209"/>
<path d="M65.2131 29.6995C65.2131 29.6995 62.1238 18.5166 56.3565 13.5675C56.3565 13.5675 64.3858 25.6115 65.3124 41.8499L65.2131 29.6995Z" fill="#EB6209"/>
<path d="M39.7944 51.2324C39.7944 51.495 39.5911 51.7103 39.3406 51.7103C39.0901 51.7103 38.8868 51.495 38.8868 51.2324C38.8868 50.9698 39.0877 50.7545 39.3406 50.7545C39.5935 50.7545 39.7944 50.9722 39.7944 51.2324Z" fill="#EB6209"/>
<path d="M38.5441 52.5501C38.5441 52.8151 38.3431 53.0303 38.0902 53.0303C37.8373 53.0303 37.6364 52.8151 37.6364 52.5501C37.6364 52.2851 37.8397 52.0746 38.0902 52.0746C38.3408 52.0746 38.5441 52.2828 38.5441 52.5501Z" fill="#EB6209"/>
<path d="M38.2013 50.3926C38.2013 50.6551 38.0004 50.8681 37.7475 50.8681C37.4946 50.8681 37.2913 50.6551 37.2913 50.3926C37.2913 50.13 37.497 49.9099 37.7475 49.9099C37.9981 49.9099 38.2013 50.1276 38.2013 50.3926Z" fill="#EB6209"/>
<path d="M60.6441 41.4785C60.7883 14.2843 48.3035 13.2032 48.3035 13.2032C61.2634 20.5937 56.9521 38.0198 56.9521 38.0198L50.731 46.2573L50.4308 46.6571C51.3597 46.8889 54.3048 47.6436 57.5312 48.5C60.2967 49.2381 63.2583 50.0424 65.31 50.667V49.16L57.9543 47.5395L59.4198 44.2417C61.3178 44.4262 63.4332 44.6367 65.31 44.8307V43.461L59.8027 43.3711L60.6418 41.4761L60.6441 41.4785Z" fill="#EB6209"/>
<path d="M53.2483 32.1717C53.1466 36.1272 52.005 38.5426 50.835 42.2048C58.7627 31.8405 51.7048 22.1433 51.7048 22.1433C48.9323 25.3938 53.4232 25.6706 53.2506 32.1717H53.2483Z" fill="#EB6209"/>
<path d="M42.0422 50.1915L42.1013 51.4287C42.8601 50.861 44.0773 50.3239 45.2639 50.5581C50.9626 53.5674 59.1905 60.1417 63.4947 64.8046H65.3478V62.9333C58.9589 58.4408 52.5581 53.4633 45.5972 50.0471C46.337 49.1411 46.8404 48.1569 47.1241 47.0521C45.4175 48.3202 44.8573 48.9187 42.0422 50.1915Z" fill="#EB6209"/>
<path d="M65.3478 58.6064V56.6878C65.3478 56.6878 55.4394 51.3105 47.9915 48.8951L47.7764 49.1222C53.8936 51.3933 59.8925 54.8875 65.3478 58.6064Z" fill="#EB6209"/>
<path d="M43.4084 43.3592C43.4084 43.3592 43.6944 44.2819 43.8457 44.7408C43.1508 45.9403 42.0115 46.9315 40.7895 47.2769C40.1348 46.8179 40.0024 44.8331 38.8253 45.8929C39.6337 46.9102 39.109 48.7957 39.265 49.8153C41.9902 49.0252 44.8975 46.7233 46.0297 43.8206C45.5475 43.1936 44.2877 42.6661 44.2877 42.6661L43.4108 43.3592H43.4084Z" fill="#EB6209"/>
<path d="M35.9889 24.2157C36.1189 26.9599 37.6245 28.597 37.53 31.8073L37.9696 32.2947C38.2131 29.8438 38.8915 28.1381 39.2625 26.2928C38.1705 25.602 37.3622 24.1731 35.9889 24.2157Z" fill="#EB6209"/>
<path d="M42.7773 20.7783C42.4039 22.2261 41.7278 23.5675 41.6853 25.1525C44.0182 23.7023 47.4053 24.1187 47.5802 20.3146C47.0555 20.4281 46.545 20.7664 46.051 20.7783C45.3726 20.7783 45.0677 19.1625 44.3019 20.0827C44.2144 20.9107 43.3659 20.7783 42.7749 20.7783H42.7773Z" fill="#EB6209"/>
<path d="M62.1545 1.79324C62.528 2.10079 62.84 2.49823 63.0527 2.99977C64.5489 5.99716 63.6649 11.2396 61.7881 14.4878C62.8423 15.9403 63.4474 16.9032 65.284 21.5803V1.79324H62.1522H62.1545Z" fill="#EB6209"/>
<path d="M51.0335 5.0887C51.7308 4.19209 54.2906 2.39413 55.6899 1.79086H41.8389C45.2355 2.32079 48.547 3.83959 51.0335 5.0887Z" fill="#EB6209"/>
<path d="M14.2481 6.59567C14.2481 6.59567 9.31986 1.17814 5.9682 3.8869C6.95621 4.76932 13.4421 7.20367 14.2481 6.59567Z" fill="#EB6209"/>
<path d="M16.6661 30.7333C16.0799 28.5899 16.8198 26.4229 16.8836 24.2772C20.682 25.5452 17.4083 30.6055 24.3078 32.8104C24.3078 32.8104 18.7414 36.4844 19.0203 39.8319C19.0203 39.8319 19.0061 41.9634 17.9827 41.8049C17.8456 39.8177 16.1698 38.2066 17.1034 36.0373C18.6067 35.0247 20.6441 35.3678 21.9063 33.733C19.9209 33.3403 17.8078 32.808 16.6685 30.7333H16.6661Z" fill="#EB6209"/>
<path d="M19.571 40.5535C19.9445 37.0687 23.5018 36.2549 25.5558 34.1305C27.1701 32.0179 22.6107 31.6867 22.0647 28.8289C22.0836 28.0434 21.1688 27.6531 21.4052 26.7541C22.5634 27.1681 22.6556 29.8414 24.5985 29.2192C25.5321 28.9259 25.6905 28.2777 25.3383 27.4449L25.1209 27.2107C24.7687 27.6957 24.199 28.1949 23.3741 27.9039C22.951 27.6886 22.8092 27.4213 22.9392 26.9836L23.3741 26.5223C23.6128 26.7754 23.9059 27.1799 24.2463 26.9836C24.407 26.8937 24.5323 26.7541 24.4661 26.5223C22.9392 25.4388 21.0814 26.8014 19.8783 25.3702L20.0981 24.218C22.1474 24.431 23.5916 25.3016 25.3383 25.8338C26.2767 28.3013 27.8934 30.4683 28.1771 33.2126C25.3998 36.2596 22.1474 39.1175 20.5377 42.6708C19.7365 42.491 19.5403 41.2419 19.571 40.5582V40.5535Z" fill="#EB6209"/>
<path d="M1.79164 29.6995C1.79164 29.6995 3.54547 20.7688 9.31277 15.8221C9.31277 15.8221 2.61655 25.6115 1.69 41.8499L1.79164 29.6995Z" fill="#EB6209"/>
<path d="M27.2103 51.2277C27.2103 51.4926 27.4112 51.7079 27.6641 51.7079C27.9171 51.7079 28.118 51.4926 28.118 51.2277C28.118 50.9627 27.9171 50.7545 27.6641 50.7545C27.4112 50.7545 27.2103 50.9722 27.2103 51.2277Z" fill="#EB6209"/>
<path d="M28.4583 52.5501C28.4583 52.8151 28.6592 53.0303 28.9121 53.0303C29.165 53.0303 29.366 52.8151 29.366 52.5501C29.366 52.2851 29.1627 52.0746 28.9121 52.0746C28.6616 52.0746 28.4583 52.2828 28.4583 52.5501Z" fill="#EB6209"/>
<path d="M28.7963 50.3926C28.7963 50.6622 29.002 50.8681 29.2549 50.8681C29.5078 50.8681 29.7111 50.6646 29.7111 50.3926C29.7111 50.1205 29.5054 49.9099 29.2549 49.9099C29.0043 49.9099 28.7963 50.1276 28.7963 50.3926Z" fill="#EB6209"/>
<path d="M30.9827 41.8002C30.8905 40.2246 30.5171 38.7602 29.8718 37.4047L28.1274 40.1229C26.0947 37.3006 30.7676 35.5617 31.4011 33.0091L31.8313 32.8577C31.7344 33.4562 31.6753 34.244 31.6753 35.1028C31.6753 36.9812 31.9566 38.5047 32.3111 38.5047C32.6656 38.5047 32.9469 36.9812 32.9469 35.1028C32.9469 34.2204 32.8831 33.4137 32.7767 32.8104H34.6984V32.8979L35.2657 33.0966C35.9015 35.6469 40.5721 37.3857 38.5417 40.2104L36.7926 37.4922C36.1615 38.8265 35.7904 40.2625 35.6911 41.8049C35.0907 41.3886 34.2564 41.1378 33.3346 41.1378C32.4127 41.1378 31.5831 41.3862 30.9804 41.8002H30.9827Z" fill="#EB6209"/>
<path d="M6.36057 41.4785C6.21403 14.2843 20.9041 11.7317 20.9041 11.7317C7.94422 19.1223 10.0502 38.0221 10.0502 38.0221L16.2714 46.2596L16.5715 46.6594C15.6426 46.8913 12.6975 47.6459 9.47114 48.5023C6.70567 49.2404 3.74165 50.0448 1.69 50.6694V49.1624L9.04568 47.5419L7.58022 44.244C5.68457 44.4285 3.56674 44.6391 1.69 44.8331V43.4633L7.19731 43.3734L6.35821 41.4785H6.36057Z" fill="#EB6209"/>
<path d="M13.7541 32.1717C13.8557 36.1272 14.9974 38.5426 16.1674 42.2048C8.23968 31.8405 15.2975 22.1433 15.2975 22.1433C18.0725 25.3938 13.5815 25.6706 13.7517 32.1717H13.7541Z" fill="#EB6209"/>
<path d="M24.9625 50.1915L24.9034 51.4287C24.147 50.861 22.9298 50.3239 21.7408 50.5581C16.0421 53.5674 7.81894 60.1394 3.51001 64.8046H1.65454V62.9333C8.04349 58.4408 14.4442 53.4633 21.4076 50.0471C20.6677 49.1411 20.1643 48.1569 19.8783 47.0521C21.5872 48.3202 22.1474 48.9187 24.9601 50.1915H24.9625Z" fill="#EB6209"/>
<path d="M1.65454 58.6064V56.6878C1.65454 56.6878 11.563 51.3105 19.0108 48.8951L19.2283 49.1222C13.1111 51.3933 7.10984 54.8875 1.65454 58.6064Z" fill="#EB6209"/>
<path d="M23.594 43.3592C23.594 43.3592 23.3103 44.2819 23.159 44.7408C23.854 45.9403 24.9932 46.9315 26.2152 47.2769C26.87 46.8179 27 44.8331 28.1794 45.8929C27.3687 46.9102 27.8958 48.7957 27.7398 49.8153C25.0122 49.0252 22.1072 46.7233 20.975 43.8206C21.4525 43.1936 22.7194 42.6661 22.7194 42.6661L23.594 43.3592Z" fill="#EB6209"/>
<path d="M31.0135 24.2157C30.8835 26.9599 29.3778 28.597 29.4724 31.8073L29.0327 32.2947C28.7893 29.8438 28.1109 28.1381 27.7398 26.2928C28.8318 25.602 29.6425 24.1731 31.0135 24.2157Z" fill="#EB6209"/>
<path d="M24.225 20.7735C24.5985 22.2284 25.2745 23.5675 25.317 25.1525C22.9818 23.7047 19.597 24.1187 19.4197 20.3146C19.9445 20.4281 20.455 20.7664 20.949 20.7735C21.6274 20.7735 21.9323 19.1625 22.6981 20.0827C22.7856 20.9107 23.6341 20.7735 24.225 20.7735Z" fill="#EB6209"/>
<path d="M4.84784 1.79324C4.47438 2.10079 4.16474 2.49823 3.95202 2.99977C2.45346 5.99716 3.33747 11.2396 5.21184 14.4878C4.15765 15.9403 3.55492 16.9032 1.716 21.5803V1.79324H4.84548H4.84784Z" fill="#EB6209"/>
<path d="M60.2872 7.34799C60.9065 7.34799 61.41 8.61366 61.41 10.175C61.41 11.7364 60.9065 13.0021 60.2872 13.0021C59.6679 13.0021 59.1645 11.7364 59.1645 10.175C59.1645 8.61366 59.6679 7.34799 60.2872 7.34799Z" fill="#EB6209"/>
<path d="M15.9712 5.0887C15.2763 4.19209 12.7141 2.39413 11.3171 1.79086H25.1681C21.7716 2.32079 18.4601 3.83959 15.9735 5.0887H15.9712Z" fill="#EB6209"/>
<path d="M60.656 64.6863C58.0796 61.2513 55.8649 59.2404 52.7023 56.8392C51.4401 58.5733 49.925 60.577 48.0459 62.2331C46.7506 57.6672 43.6708 54.93 42.1013 53.9672C40.7257 54.0334 38.8702 57.5773 35.8235 54.8662C34.0791 52.7607 36.9273 50.8066 35.5493 48.8974L37.9531 47.5134C37.6411 46.4347 36.386 45.3819 34.6795 46.1319C34.6795 46.8297 34.0838 47.3904 33.5047 47.7571C32.9233 47.3904 32.3276 46.8321 32.3276 46.1319C30.6211 45.3843 29.366 46.437 29.054 47.5134L31.4578 48.8974C30.0798 50.8089 32.9256 52.763 31.1813 54.8662C28.1345 57.5773 26.2814 54.0334 24.9034 53.9672C23.334 54.9324 20.2541 57.6672 18.9588 62.2331C17.0797 60.577 15.5646 58.5733 14.3025 56.8392C11.1423 59.2404 8.92751 61.2513 6.35114 64.6863H16.5196C15.801 63.3544 14.6925 61.1496 14.0472 59.1079C14.0472 59.1079 16.2241 62.2614 19.6396 64.6863H29.8458C27.1536 60.6078 21.6865 57.5655 25.1232 54.8874C26.4492 57.1349 28.6191 57.944 30.5431 58.1711L33.5047 54.6201L36.464 58.1711C38.388 57.944 40.5579 57.1373 41.8839 54.8874C45.3206 57.5678 39.8535 60.6078 37.1589 64.6863H47.3675C50.7807 62.2614 52.9599 59.1079 52.9599 59.1079C52.3147 61.1496 51.2061 63.3544 50.4899 64.6863H60.6583H60.656Z" fill="#EB6209"/>
</g>
<defs>
<clipPath id="clip0_3717_11401">
<rect width="245" height="66" fill="white"/>
</clipPath>
</defs>
</svg>
